<svg xmlns="http://www.w3.org/2000/svg" xmlns:xlink="http://www.w3.org/1999/xlink" preserveAspectRatio="xMidYMid" width="67.312" height="66.25" viewBox="0 0 67.312 66.25">
  <defs>
    <style>
      .cls-1 {
        fill: #000;
        fill-rule: evenodd;
      }
    </style>
  </defs>
  <path d="M65.404,64.324 C62.866,66.863 58.750,66.863 56.212,64.324 L47.484,55.596 C45.457,53.569 45.077,50.548 46.287,48.116 L42.573,44.402 C38.051,48.489 32.076,51.000 25.500,51.000 C11.417,51.000 -0.000,39.583 -0.000,25.500 C-0.000,11.417 11.417,-0.000 25.500,-0.000 C39.583,-0.000 51.000,11.417 51.000,25.500 C51.000,31.566 48.873,37.130 45.336,41.508 L49.091,45.262 C51.540,43.987 54.620,44.347 56.677,46.404 L65.404,55.132 C67.943,57.670 67.943,61.786 65.404,64.324 ZM47.000,25.500 C47.000,13.626 37.374,4.000 25.500,4.000 C13.626,4.000 4.000,13.626 4.000,25.500 C4.000,37.374 13.626,47.000 25.500,47.000 C37.374,47.000 47.000,37.374 47.000,25.500 ZM62.576,57.960 L53.848,49.232 C52.872,48.256 51.289,48.256 50.313,49.232 C49.336,50.209 49.336,51.792 50.313,52.768 L59.041,61.496 C60.017,62.472 61.600,62.472 62.576,61.496 C63.552,60.519 63.552,58.936 62.576,57.960 Z" class="cls-1"/>
</svg>
